<svg xmlns="http://www.w3.org/2000/svg" width="940" height="168" viewBox="0 0 26634 4762.99" shape-rendering="geometricPrecision" text-rendering="geometricPrecision" image-rendering="optimizeQuality" fill-rule="evenodd" clip-rule="evenodd"><path d="M6503.62 327.66v850.1h460.4c63.05 0 122.7-10.94 178.99-33.33 55.72-22.39 104.12-53.12 145.22-92.21 41.1-39.06 73.73-83.87 97.93-135.45 24.2-51.04 36.01-105.72 36.01-163.52 0-58.37-11.81-114.1-36.01-165.67-24.2-51.58-56.83-96.9-98.5-135.42-41.63-38.55-90.6-68.78-146.32-91.17-55.73-22.42-115.4-33.33-177.32-33.33h-460.4zM6152.4 2282.09V164.1c0-22.43 4.49-43.24 12.96-63.06 9-19.78 21.38-36.95 37.15-52.08 16.33-14.59 34.34-26.03 55.72-34.37 20.82-7.83 43.88-11.98 69.22-11.98h636.57c110.88 0 215.57 19.78 314.07 59.37 97.96 39.6 184.08 93.78 257.24 162.03 73.16 67.7 131.13 147.39 173.9 238.56 42.77 91.14 64.19 188.03 64.19 290.68 0 67.17-9 132.3-27.04 195.82-18 63.56-45.01 124-81.03 180.26-35.47 56.26-79.95 108.88-133.4 157.3-52.92 47.93-114.83 90.64-185.18 127.12l525.69 779.78c18.57 28.12 28.15 57.8 28.15 88.56 0 22.93-4.49 44.28-13.53 64.06-8.43 19.28-20.81 35.95-37.11 51.04-15.77 14.59-34.34 26.07-55.73 34.41-21.38 7.79-44.48 11.98-68.68 11.98-61.34 0-111.45-26.58-149.73-79.19l-581.42-861.58h-490.79v779.28c0 44.78-16.86 82.84-51.24 114.06-34.33 31.76-75.97 47.43-124.37 47.43-48.39 0-90.06-15.67-124.36-47.43-34.34-31.22-51.25-69.78-51.25-114.06zm3383.45 161.49c-49.53 0-90.63-15.13-122.13-45.85-32.06-30.23-48.39-67.74-49.53-111.49-75.44 55.23-155.93 94.82-240.34 119.82-84.44 25-176.18 37.52-274.68 37.52-117.64 0-228.52-21.39-332.64-63.56-104.12-42.2-195.29-99.5-273.54-171.39-77.65-72.39-139.6-156.8-185.18-253.66-45.59-96.39-68.08-199.54-68.08-308.38V892.84c0-43.77 16.87-81.26 50.07-112.52 33.8-30.72 74.87-46.35 123.27-46.35 46.72 0 87.25 15.63 121.02 46.35 33.2 31.26 50.1 68.75 50.1 112.52v754.25c0 66.17 13.49 128.15 40.5 185.95 26.47 58.37 63.62 108.88 109.78 152.12 46.68 43.24 101.31 77.11 163.79 102.11 62.45 25 129.42 37.49 200.91 37.49 70.35 0 136.79-12.49 199.24-37.49 62.49-25 117.08-59.37 164.37-103.15 47.29-43.74 84.44-94.28 110.88-151.58 27.01-57.83 40.53-119.28 40.53-185.45V892.84c0-43.77 16.87-81.26 50.1-112.52 33.77-30.72 74.84-46.35 123.23-46.35 46.76 0 87.26 15.63 121.03 46.35 33.23 31.26 50.1 68.75 50.1 112.52v1391.83c0 43.78-16.87 81.26-50.1 112.52-33.77 30.72-74.84 46.39-122.7 46.39zm628.87-1552.31c145.79-104.69 317.45-157.3 515.02-157.3 115.37 0 225.14 20.81 328.7 62.48 103.55 41.67 194.72 98.47 274.1 170.36 78.82 71.86 141.27 156.26 187.43 253.16 46.15 97.39 69.21 201.04 69.21 310.99v752.17c0 44.78-16.87 82.8-50.07 114.06-33.77 30.72-74.3 46.39-121.02 46.39-48.4 0-89.5-15.67-123.27-46.39-33.2-31.26-50.06-69.28-50.06-114.06v-752.71c0-65.13-13.53-126.58-41.1-184.41-27.62-58.34-64.73-108.88-110.89-152.08-46.72-43.24-101.31-77.62-163.79-103.15-62.49-25.54-128.89-38.02-199.24-38.02-71.49 0-137.92 12.48-199.81 37.48-61.91 25-116.5 59.41-163.79 103.15-47.29 43.74-84.44 94.28-110.88 152.62-27.01 57.83-40.54 119.28-40.54 184.41v752.71c0 44.78-16.9 82.8-50.1 114.06-33.77 30.72-74.3 46.39-120.99 46.39-48.43 0-89.49-15.67-123.3-46.39-33.2-31.26-50.06-69.28-50.06-114.06V894.38c0-43.74 16.86-81.76 50.06-113.02 33.81-31.76 74.87-47.39 123.3-47.39 46.69 0 87.22 15.63 120.99 47.39 33.2 31.26 50.1 68.24 50.1 109.91zm2181.22 362.03c-159.31-43.78-279.73-100.54-361.36-169.82-81.03-69.28-137.89-140.1-170.55-212.53-32.64-72.92-48.4-150.04-48.4-231.3 0-100 20.25-190.1 60.81-270.86 40.5-81.26 100.74-153.12 179.53-216.17h-1.68C12130.94 51.04 12279.51 0 12450.06 0c55.16 0 109.75 6.26 164.9 19.28 55.16 12.52 108.07 31.76 159.31 57.83 51.21 26.04 99.07 58.34 143.52 96.86 44.44 38.56 84.41 83.87 119.31 135.98 16.34 26.54 24.77 55.73 24.77 86.99 0 23.43-4.48 44.78-12.95 64.06-9.01 19.27-21.36 36.48-37.15 51.07-16.3 15.09-34.88 26.54-56.26 34.37-21.39 8.34-43.91 12.49-68.11 12.49-21.96 0-41.67-3.12-58.54-9.38-17.47-5.72-32.66-14.59-46.15-26.03-14.09-10.95-27.01-23.97-39.96-38.56-12.39-14.59-25.91-31.76-40.53-51.04-25.91-35.44-61.92-62.52-107.51-80.22-46.15-17.71-95.11-26.58-148.03-26.58-41.67 0-82.16 7.83-122.12 23.46-39.43 16.14-74.3 37.49-105.26 65.1-30.96 27.61-55.73 59.91-74.87 97.43-19.15 38.02-29.25 78.65-29.25 122.39 0 78.15 23.63 140.14 70.35 185.45 46.72 45.32 127.21 82.8 242.01 113.56 193.62 51.04 345.6 120.86 455.37 210.45 109.71 89.6 184.58 177.62 223.98 264.1 39.96 86.45 59.67 177.62 59.67 273.48 0 238.02-95.12 431.31-285.35 579.74h1.7c-153.12 119.82-327.05 180.23-521.77 180.23-64.73 0-129.46-7.27-194.76-22.39-64.73-14.6-127.21-36.45-186.85-64.6-60.25-28.65-115.97-64.06-168.28-106.8-52.35-43.2-97.4-91.13-136.22-145.32-23.09-27.61-34.34-60.41-34.34-97.93 0-22.39 4.49-43.74 12.95-63.55 8.97-19.78 21.39-36.99 37.15-51.58 15.73-15.09 34.31-26.54 55.16-34.37 20.82-8.33 43.88-12.48 69.21-12.48 65.3 0 113.7 25 146.9 75 46.15 66.17 104.15 116.17 173.36 149.5 69.25 33.84 144.09 50.51 224.04 50.51 62.46 0 121.56-11.45 177.29-34.37 55.72-22.93 104.12-53.66 145.22-92.18 41.06-39.09 73.73-84.41 97.93-137.02 24.19-52.08 36.58-107.83 36.58-166.67 0-56.26-11.25-108.88-33.77-158.38-22.53-48.96-66.4-97.92-130.6-146.35-64.16-48.47-166.03-91.67-306.17-130.23zm3511.2 1029.83c0 44.78-16.91 82.8-50.67 114.06-33.77 30.72-74.31 46.39-121.56 46.39-48.43 0-89.5-15.67-122.7-46.39-33.23-31.26-49.53-69.28-49.53-114.06v-868.34c0-48.97-10.14-95.32-30.39-139.1-20.28-43.74-47.86-82.3-82.74-115.13-35.47-33.3-76.57-59.38-124.4-78.65-47.29-19.25-98.5-29.15-153.08-29.15-54.06 0-104.16 9.9-151.42 29.15-47.29 19.27-88.39 45.35-123.83 77.61-35.44 32.83-63.62 70.85-83.84 114.63-20.28 43.74-30.42 90.63-30.42 140.64v868.34c0 44.78-16.9 82.8-50.11 114.06-33.77 30.72-74.26 46.39-120.98 46.39-48.43 0-89.5-15.67-123.27-46.39-33.2-31.26-50.1-69.28-50.1-114.06v-868.34c0-50.01-10.71-96.9-31.53-140.64-20.82-43.78-48.96-81.8-84.41-114.63-34.91-32.26-76.54-58.34-123.83-77.61-47.29-19.25-97.93-29.15-151.98-29.15-54.02 0-104.69 9.37-151.95 28.11-47.29 18.78-88.93 44.81-124.97 78.15-36.01 32.8-63.59 71.35-84.41 115.13-20.25 43.74-30.39 90.63-30.39 140.64v868.34c0 44.78-16.9 82.8-50.1 114.06-33.77 30.72-74.3 46.39-121.02 46.39-48.4 0-89.5-15.67-123.27-46.39-33.2-31.26-50.07-69.28-50.07-114.06V892.84c0-43.77 16.87-81.26 50.07-112.52 33.77-30.72 74.3-46.35 121.59-46.35 38.26 0 72.03 9.87 101.88 29.68 29.82 19.78 50.07 45.82 60.78 78.66 117.64-72.43 251.58-108.34 400.75-108.34 110.32 0 213.3 20.31 310.12 60.41 96.79 40.13 181.24 101.04 253.86 182.3 153.09-161.99 340.51-242.71 562.28-242.71 100.17 0 195.29 18.2 284.78 54.15 89.5 35.94 167.75 84.91 234.15 146.39 66.43 61.45 119.35 133.88 158.17 216.68 38.82 83.37 58.54 170.85 58.54 263.6v868.34zm1070.12-1230.37c-81.59 0-157.03 14.05-227.95 42.7-70.35 28.65-131.13 67.21-182.91 115.13-51.77 48.43-92.87 105.2-122.73 170.33-30.35 65.09-45.58 134.41-45.58 207.84s15.23 142.74 45.58 207.84c29.86 65.13 70.96 121.89 122.73 170.32 51.78 47.96 112.56 86.48 182.91 115.13 70.92 28.65 146.36 42.71 227.95 42.71 80.49 0 155.9-14.06 226.25-42.71 70.39-28.65 131.73-67.17 183.51-116.14 52.34-48.99 93.98-105.76 123.83-170.35 30.39-64.6 45.59-133.37 45.59-206.8s-15.2-142.21-45.59-206.81c-29.85-64.59-71.49-121.35-123.83-170.32-51.78-48.96-113.12-87.52-183.51-116.17-70.35-28.65-145.76-42.7-226.25-42.7zm579.18 1231.91v-30.19c-82.74 60.95-172.23 107.8-269.06 140.13-96.79 32.8-200.34 48.97-310.12 48.97-254.96 0-472.78-83.37-652.9-250.58-180.67-166.68-270.7-368.26-270.7-604.24 0-235.96 90.03-437.57 270.7-604.25 180.12-167.21 397.94-250.54 652.9-250.54 252.72 0 470.54 83.33 652.91 250.54 180.66 166.68 270.73 368.29 270.73 604.25v695.91c0 43.78-16.91 81.26-50.11 112.52-33.77 30.72-74.26 46.39-120.99 46.39-48.42 0-89.52-15.67-123.29-46.39-33.2-31.26-50.07-68.74-50.07-112.52zm797.15-1392.36v30.72c82.74-60.94 172.23-107.8 269.06-140.1 96.22-32.83 199.77-48.96 309.55-48.96 48.39 0 100.74 3.11 155.93 9.37 55.69 5.72 106.9 16.67 153.65 32.8 46.69 15.63 85.52 37.52 115.94 65.13 30.96 27.61 46.15 63.02 46.15 106.8 0 22.89-4.52 43.74-14.09 62.98-9 19.28-21.38 36.48-37.11 51.08-15.23 15.09-33.24 26.57-54.06 34.37-20.81 8.33-43.34 12.52-67.54 12.52-20.81 0-45.01-5.73-72.62-17.21-69.22-26.03-144.65-39.05-226.25-39.05-79.92 0-155.33 14.05-225.71 42.2-70.35 27.61-131.7 66.13-184.05 114.06-51.77 48.46-93.41 105.23-123.26 170.32-30.39 65.13-45.59 134.91-45.59 209.42v695.91c0 43.78-16.86 81.26-50.1 112.52-33.77 30.72-74.3 46.39-121.02 46.39-48.4 0-89.46-15.67-123.23-46.39-33.2-31.26-50.11-68.74-50.11-112.52V892.84c0-43.77 16.91-81.26 50.11-112.52 33.77-30.72 74.83-46.35 123.23-46.35 46.72 0 87.25 15.63 121.02 46.35 33.24 31.26 50.1 68.75 50.1 111.99zm1259.83-158.34h77.11V160.95c0-43.74 16.87-80.73 50.07-111.99 33.77-30.72 74.87-46.35 123.27-46.35 46.72 0 87.25 15.63 121.02 46.35 33.2 31.26 50.07 68.25 50.07 111.99v573.02h205.46c47.26 0 87.25 15.63 119.89 46.35 33.2 31.26 49.53 68.75 49.53 111.99 0 44.81-16.33 82.83-49.53 114.09-32.64 30.73-72.63 46.36-119.89 46.36h-205.46v768.34c0 202.61 109.77 303.66 329.83 303.66 47.29 0 87.25 15.63 120.45 46.38 33.2 31.23 49.54 68.75 49.54 111.99 0 44.78-16.34 82.8-49.54 114.06-32.63 30.72-73.16 46.39-120.45 46.39-449.68 0-674.26-207.88-674.26-623.02v-767.8h-77.11c-46.15 0-86.12-15.63-119.35-46.36-33.2-31.26-50.07-69.28-50.07-114.09 0-43.24 16.87-80.73 50.07-111.99 33.23-30.72 73.2-46.35 119.35-46.35zM6673.95 4092.28c0-31.06-5.69-60.11-17.04-87.42-11.18-27.35-26.74-51.34-46.32-72.06-19.38-20.69-42.34-36.98-68.64-49.1-26.31-12.12-54.52-18.04-84.65-18.04-30.52 0-58.73 5.92-85.27 18.04-26.31 12.12-49.04 28.41-68.41 48.66-19.38 20.49-34.74 44.52-45.92 72.06-11.35 27.51-17.04 56.8-17.04 87.86 0 31.06 5.69 60.34 17.04 87.89 11.18 27.54 26.54 51.54 45.92 72.02 19.37 20.28 42.1 36.58 68.41 48.7 26.54 12.11 54.75 18.04 85.27 18.04 30.13 0 58.34-5.93 84.65-18.04 26.3-12.12 49.26-28.42 68.64-49.14 19.58-20.71 35.14-44.71 46.32-72.02 11.35-27.31 17.04-56.39 17.04-87.45zm-370.33-404.84c-32.84 34.14-53.05 74.47-60.45 120.72 60.85-51.54 132.24-77.31 214.13-77.31 94.55 0 176.02 35.24 244.22 105.93 33.91 34.8 59.18 73.59 76.01 116.3 16.87 42.94 25.27 89.23 25.27 139.2 0 100.67-33.67 185.91-101.28 255.5-68.2 70.72-149.67 105.96-244.22 105.96-95.38 0-176.84-35.24-244.22-105.73-67.6-70.48-101.27-155.73-101.27-255.5v-244.92c0-49.57 9.03-96.06 27.37-139.67 18.31-43.57 43.18-81.93 74.74-114.76 31.36-33 68.01-59.01 109.68-78.18 41.9-19.15 86.35-28.62 133.7-28.62h26.54c65.7 0 125.28-14.09 178.76-42.3 9.04-5.29 18.51-7.94 28.42-7.94 9.03 0 17.47 1.78 25.26 5.53 7.8 3.74 14.53 8.56 20.42 14.52 5.69 6.16 10.31 13.22 13.89 21.59 3.38 8.17 5.25 16.97 5.25 26.44 0 14.32-4.38 27.08-13.02 38.09-8.63 11.01-20.21 20.95-34.77 29.52-14.73 8.6-31.36 16.09-50.1 22.49-18.71 6.16-38.09 11.21-58.3 15.19-20.02 3.95-40.03 6.8-60.01 8.8-20.02 1.98-38.56 2.88-55.8 2.88h-26.54c-60.41 0-111.81 22.02-153.68 66.27zm1151.05 338.1c-6.96-23.8-17.27-45.35-31.16-64.96-13.69-19.82-29.72-36.55-47.99-50.67-18.34-13.89-38.56-24.9-60.45-32.6-22.12-7.7-44.85-11.65-68.24-11.65-23.36 0-46.29 3.95-68.41 11.65-22.32 7.7-42.54 18.71-61.05 32.6-18.54 14.12-34.54 30.85-48.23 50.67-13.45 19.61-23.56 41.16-30.08 64.96h415.61zm-27.81 224.68c18.54 0 33.9 6.39 46.12 19.14 12.01 12.58 18.1 28.65 18.1 48.03 0 18.94-6.09 35-18.51 48.46-63.59 58.57-138.99 87.89-225.74 87.89-95.35 0-176.85-35.24-244.22-105.96-67.37-70.49-101.28-155.7-101.28-255.5 0-99.77 33.91-185.02 101.28-255.5 67.37-70.69 148.87-105.93 244.22-105.93 94.55 0 176.04 35.44 244.25 106.16 33.71 34.81 58.94 73.8 76.01 116.74 16.84 42.74 25.27 89.19 25.27 139.43 0 19.38-6.33 35.44-18.94 47.99-12.45 12.79-27.82 19.18-45.92 19.18h-488.44c6.92 23.56 17.27 45.15 30.72 64.53 13.69 19.38 29.49 36.15 47.79 50 18.31 14.09 38.53 24.9 60.41 32.6 22.13 7.7 45.09 11.45 68.85 11.45 27.18 0 52.04-4.39 74.77-12.99 22.52-8.6 43.57-21.59 62.75-38.99 12.42-10.78 26.51-16.3 42.51-16.73zm389.1 136.35c0 9-1.7 17.6-5.05 25.73-3.15 8.4-7.8 15.43-13.49 21.83-5.89 6.15-12.62 11.01-20.41 14.55-8 3.28-16.44 5.06-25.47 5.06-9.07 0-17.51-1.78-25.47-5.06-7.8-3.54-14.53-8.4-20.42-14.55-5.69-6.4-10.34-13.43-13.49-21.83-3.38-8.13-5.05-16.73-5.05-25.73v-441.42c0-29.72 5.49-57.47 16.43-83.71 10.95-25.97 25.67-48.66 44.18-68.04 18.78-19.38 40.46-34.57 65.3-45.82 25.03-11.24 51.37-16.73 79.35-16.73H8080c8.63 0 16.83 1.74 24.6 5.05 7.79 3.52 14.76 8.37 20.65 14.56 6.12 6.36 10.74 13.42 13.89 21.59 3.38 8.13 5.05 16.73 5.05 25.74 0 9.5-1.67 18.5-5.05 26.67-3.15 8.13-7.77 15.2-13.89 21.59-5.89 6.16-12.86 11.01-20.65 14.52-7.77 3.32-15.97 5.09-24.6 5.09h-187.63c-10.94 0-21.25 2.18-30.72 6.79a76.082 76.082 0 00-24.43 18.08c-6.73 7.49-12.02 16.06-15.8 25.53-3.55 9.51-5.46 19.18-5.46 28.85v441.66zm736.08-520.91c-30.52 0-58.77 5.92-85.28 18.04-26.31 12.12-49.06 28.41-68.41 48.66-19.38 20.49-34.74 44.52-45.92 72.06-11.38 27.51-17.07 56.8-17.07 87.86 0 31.06 5.69 60.34 17.07 87.89 11.18 27.54 26.54 51.54 45.92 72.02 19.35 20.28 42.1 36.58 68.41 48.7 26.51 12.11 54.76 18.04 85.28 18.04 30.09 0 58.33-5.93 84.64-18.04 26.31-12.12 49.27-28.42 68.65-49.14 19.57-20.71 35.14-44.71 46.32-72.02 11.34-27.31 17.03-56.39 17.03-87.45 0-31.06-5.69-60.11-17.03-87.42-11.18-27.35-26.75-51.34-46.32-72.06-19.38-20.69-42.34-36.98-68.65-49.1-26.31-12.12-54.55-18.04-84.64-18.04zm216.64 520.91v-12.79c-30.96 25.77-64.43 45.59-100.64 59.24-36.21 13.89-74.94 20.72-116 20.72-95.39 0-176.88-35.24-244.26-105.96-67.57-70.49-101.24-155.7-101.24-255.5 0-99.77 33.67-185.02 101.24-255.5 67.38-70.69 148.87-105.93 244.26-105.93 94.51 0 176.01 35.24 244.22 105.93 67.57 70.48 101.28 155.73 101.28 255.5v294.29c0 18.5-6.33 34.34-18.75 47.56-12.65 12.98-27.78 19.61-45.25 19.61-18.14 0-33.5-6.63-46.12-19.61-12.41-13.22-18.74-29.06-18.74-47.56zm805.76 67.17c-18.54 0-33.91-6.39-45.69-19.38-12.01-12.79-18.1-28.65-18.54-47.16-28.21 23.36-58.3 40.1-89.89 50.67-31.57 10.58-65.9 15.87-102.75 15.87-44.01 0-85.48-9.04-124.44-26.88-38.92-17.84-73.06-41.83-102.31-72.46-29.05-30.62-52.21-66.3-69.25-107.06-17.07-40.97-25.5-84.34-25.5-130.4v-318.69c0-18.5 6.32-34.37 18.74-47.59 12.65-12.98 28.01-19.61 46.12-19.61 17.47 0 32.63 6.63 45.25 19.61 12.42 13.22 18.74 29.09 18.74 47.59v318.69c0 27.98 5.06 54.19 15.16 78.65 9.91 24.67 23.8 46.02 41.07 64.3 17.47 18.3 37.89 32.6 61.28 43.17 23.36 10.58 48.4 15.87 75.14 15.87 26.34 0 51.17-5.29 74.53-15.87 23.4-10.57 43.81-25.1 61.48-43.61 17.71-18.47 31.6-39.86 41.5-64.09 10.11-24.23 15.13-50.44 15.13-78.42v-318.69c0-18.5 6.33-34.37 18.74-47.59 12.66-12.98 28.02-19.61 46.12-19.61 17.48 0 32.64 6.63 45.25 19.61 12.45 13.22 18.75 29.09 18.75 47.59v588.32c0 18.5-6.3 34.34-18.75 47.56-12.61 12.98-27.98 19.61-45.88 19.61zm-256.87-799.53c-28.42 0-54.96-4.22-79.99-12.56-24.84-8.4-46.52-20.04-65.07-34.8-18.54-14.76-33.06-32.4-44.01-52.45-10.94-20.25-16.4-42.03-16.4-65.16 0-18.98 6.09-34.81 18.28-48.03 12.01-13.02 27.41-19.61 45.92-19.61 18.54 0 33.9 6.39 46.32 19.38 9.07 9.7 14.52 21.35 16.63 34.57 1.27 12.12 9.07 22.26 23.36 30.42 15.2 9.01 33.47 13.42 54.96 13.42 21.28 0 39.59-4.41 54.95-13.42 14.33-8.16 21.89-18.3 22.76-30.42 2.51-13.22 8.2-24.87 17.27-34.57 12.42-12.99 27.78-19.38 46.29-19.38 18.54 0 33.7 6.59 45.92 19.61 12.21 13.22 18.1 29.05 18.1 48.03 0 23.13-5.49 44.91-16.23 65.16-10.94 20.05-25.67 37.69-44.21 52.45-18.54 14.76-40.2 26.4-65.03 34.8-24.87 8.34-51.37 12.56-79.82 12.56zm1110.42 78.18c-27.18 0-46.12 11.88-56.86 36.11l-260.22 592.5c-3.38 9.03-5.06 18.07-5.06 27.11 0 9 1.68 17.6 5.06 25.77 3.38 8.13 7.8 15.39 13.49 21.55 5.89 6.43 12.61 11.25 20.41 14.56 7.8 3.51 16.2 5.29 25.24 5.29 11.17 0 21.92-3.08 32.23-8.8 10.1-5.73 18.1-14.13 23.99-24.91l201.72-460.12 201.05 459.46c11.81 22.92 30.55 34.37 56.02 34.37 9.04 0 17.47-1.78 25.47-5.29 7.8-3.31 14.53-8.13 20.22-14.56 5.89-6.16 10.54-13.42 13.89-21.55 3.58-8.17 5.28-16.77 5.28-25.77 0-9.91-1.9-18.95-5.49-27.11l-259.81-592.5c-11.38-24.23-30.29-36.11-56.63-36.11zm972.06 293.15c-6.93-23.8-17.27-45.35-31.16-64.96-13.69-19.82-29.68-36.55-47.99-50.67-18.31-13.89-38.52-24.9-60.45-32.6-22.08-7.7-44.81-11.65-68.2-11.65-23.37 0-46.33 3.95-68.41 11.65-22.33 7.7-42.54 18.71-61.05 32.6-18.54 14.12-34.54 30.85-48.23 50.67-13.49 19.61-23.6 41.16-30.12 64.96h415.61zm-27.78 224.68c18.54 0 33.87 6.39 46.12 19.14 11.98 12.58 18.11 28.65 18.11 48.03 0 18.94-6.13 35-18.54 48.46-63.59 58.57-138.96 87.89-225.71 87.89-95.36 0-176.85-35.24-244.23-105.96-67.37-70.49-101.27-155.7-101.27-255.5 0-99.77 33.9-185.02 101.27-255.5 67.38-70.69 148.87-105.93 244.23-105.93 94.54 0 176.01 35.44 244.25 106.16 33.67 34.81 58.94 73.8 75.97 116.74 16.87 42.74 25.31 89.19 25.31 139.43 0 19.38-6.33 35.44-18.98 47.99-12.42 12.79-27.78 19.18-45.89 19.18h-488.47c6.96 23.56 17.27 45.15 30.72 64.53 13.72 19.38 29.49 36.15 47.83 50 18.31 14.09 38.52 24.9 60.41 32.6 22.12 7.7 45.05 11.45 68.85 11.45 27.17 0 52.01-4.39 74.73-12.99 22.56-8.6 43.61-21.59 62.75-38.99 12.42-10.78 26.55-16.3 42.54-16.73zm389.11 136.35c0 9-1.71 17.6-5.09 25.73-3.14 8.4-7.8 15.43-13.45 21.83-5.93 6.15-12.62 11.01-20.42 14.55-8 3.28-16.43 5.06-25.5 5.06-9.04 0-17.47-1.78-25.44-5.06-7.8-3.54-14.56-8.4-20.45-14.55-5.69-6.4-10.31-13.43-13.45-21.83-3.38-8.13-5.05-16.73-5.05-25.73v-441.42c0-29.72 5.45-57.47 16.43-83.71 10.94-25.97 25.67-48.66 44.18-68.04 18.74-19.38 40.43-34.57 65.26-45.82 25.07-11.24 51.37-16.73 79.39-16.73h187.59c8.63 0 16.87 1.74 24.63 5.05 7.8 3.52 14.76 8.37 20.62 14.56 6.12 6.36 10.74 13.42 13.92 21.59 3.35 8.13 5.06 16.73 5.06 25.74 0 9.5-1.71 18.5-5.06 26.67-3.18 8.13-7.8 15.2-13.92 21.59-5.86 6.16-12.82 11.01-20.62 14.52-7.76 3.32-16 5.09-24.63 5.09h-187.59c-10.95 0-21.25 2.18-30.73 6.79-9.47 4.42-17.7 10.58-24.43 18.08-6.73 7.49-12.01 16.06-15.8 25.53-3.58 9.51-5.45 19.18-5.45 28.85v441.66zm415.18-588.55c0-9.04 1.67-17.64 5.05-25.77 3.15-8.37 7.8-15.43 13.49-21.79 5.89-6.19 12.62-11.04 20.42-14.56 7.99-3.31 16.39-5.05 25.46-5.05s17.48 1.74 25.47 5.05c7.8 3.52 14.53 8.37 20.45 14.56 5.69 6.36 10.31 13.42 13.46 21.79 3.38 8.13 5.05 16.73 5.05 25.77v228.39l314.57-278.83c11.99-11.24 26.08-16.73 42.51-16.73 9.07 0 17.47 1.74 25.27 5.05 8.03 3.52 14.72 8.37 20.45 14.56 5.65 6.36 10.31 13.42 13.85 21.79 3.58 8.13 5.29 16.73 5.29 25.77 0 18.51-6.32 34.37-19.14 47.79l-275.62 244.49 276.22 247.8c12.42 12.99 18.54 29.09 18.54 48.47 0 9-1.71 17.6-5.29 25.73-3.54 8.4-8.2 15.43-13.85 21.83-5.73 6.15-12.42 11.01-20.45 14.55-7.8 3.28-16.2 5.06-25.27 5.06-16 0-29.89-5.29-41.87-16.07l-288.7-258.14-26.51 23.76v183.28c0 9-1.67 17.6-5.05 25.73-3.15 8.4-7.77 15.43-13.46 21.83-5.92 6.15-12.65 11.01-20.45 14.55-7.99 3.28-16.4 5.06-25.47 5.06s-17.47-1.78-25.46-5.06c-7.8-3.54-14.53-8.4-20.42-14.55-5.69-6.4-10.34-13.43-13.49-21.83-3.38-8.13-5.05-16.73-5.05-25.73v-588.55zm1305.98 294.26c0 100.67-33.67 185.91-101.25 255.5-68.2 70.72-149.7 105.96-244.25 105.96-95.35 0-176.85-35.24-244.22-105.96-67.57-70.49-101.28-155.7-101.28-255.5 0-99.77 33.71-185.02 101.28-255.5 67.37-70.69 148.87-105.93 244.22-105.93 94.55 0 176.05 35.24 244.25 105.93 33.87 35.24 58.94 74.23 75.58 116.74 16.83 42.5 25.27 88.79 25.67 138.76zm-345.5-226.62c-30.52 0-58.74 5.92-85.24 18.04-26.34 12.12-49.07 28.41-68.45 48.66-19.38 20.49-34.74 44.52-45.92 72.06-11.34 27.51-17.03 56.8-17.03 87.86 0 31.06 5.69 60.34 17.03 87.89 11.18 27.54 26.54 51.54 45.92 72.02 19.38 20.28 42.11 36.58 68.45 48.7 26.5 12.11 54.72 18.04 85.24 18.04 30.12 0 58.34-5.93 84.68-18.04 26.27-12.12 49.23-28.42 68.61-49.14 19.58-20.71 35.14-44.71 46.32-72.02 11.38-27.31 17.07-56.39 17.07-87.45 0-31.06-5.69-60.11-17.07-87.42-11.18-27.35-26.74-51.34-46.32-72.06-19.38-20.69-42.34-36.98-68.61-49.1-26.34-12.12-54.56-18.04-84.68-18.04zm874.84 294.69c-18.54 0-33.91-6.39-46.12-19.18-11.98-12.75-18.11-28.85-18.11-48.22 0-19.38 6.13-35.48 18.11-48.23 12.21-12.79 27.58-19.18 46.12-19.18h281.07c18.54 0 33.9 6.39 46.12 19.18 11.98 12.75 18.1 28.85 18.1 48.23 0 19.37-6.12 35.47-18.1 48.22-12.22 12.79-27.58 19.18-46.12 19.18h-281.07zm1030.2 225.98l-222.14-558.12c-4.21-9.91-6.12-20.05-6.12-30.19 0-9.04 1.47-17.64 4.85-25.97 3.38-8.17 7.77-15.23 13.49-21.59 5.86-6.19 12.62-11.04 20.42-14.56 7.76-3.31 16.19-5.05 25.26-5.05 12.82 0 24.64 3.75 35.78 11.21 11.15 7.5 19.58 18.74 25.27 33.27l173.5 432.81 173.27-434.12c4.85-12.78 12.01-23.36 21.25-31.29 9.27-7.93 22.33-11.88 39.16-11.88 9.07 0 17.47 1.74 25.27 5.05 7.8 3.52 14.52 8.37 20.42 14.56 5.72 6.36 10.34 13.42 13.88 21.59 3.39 8.33 5.29 16.93 5.29 25.97 0 9.47-2.31 19.38-6.96 30.19l-354.53 889.63c-5.49 13.42-13.69 24.23-24.87 32.56-10.94 8.4-23.16 12.59-36.21 12.59-18.51 0-33.87-6.39-46.09-19.38-12.01-12.79-18.14-29.08-18.14-48.26 0-10.34 2.11-20.25 6.13-29.72l111.82-279.3zm461.06-588.31c0-9.04 1.71-17.64 5.05-25.77 3.18-8.37 7.8-15.43 13.49-21.79 5.89-6.19 12.65-11.04 20.45-14.56 7.97-3.31 16.4-5.05 25.44-5.05 9.07 0 17.5 1.74 25.5 5.05 7.76 3.52 14.52 8.37 20.42 14.56 5.68 6.36 10.3 13.42 13.45 21.79 3.38 8.13 5.09 16.73 5.09 25.77v228.39l314.53-278.83c11.99-11.24 26.11-16.73 42.54-16.73 9.04 0 17.47 1.74 25.27 5.05 8 3.52 14.73 8.37 20.42 14.56 5.65 6.36 10.31 13.42 13.89 21.79 3.58 8.13 5.25 16.73 5.25 25.77 0 18.51-6.32 34.37-19.14 47.79l-275.62 244.49 276.25 247.8c12.42 12.99 18.51 29.09 18.51 48.47 0 9-1.67 17.6-5.25 25.73-3.58 8.4-8.24 15.43-13.89 21.83-5.69 6.15-12.42 11.01-20.42 14.55-7.8 3.28-16.23 5.06-25.27 5.06-16.03 0-29.92-5.29-41.9-16.07l-288.67-258.14-26.5 23.76v183.28c0 9-1.71 17.6-5.09 25.73-3.15 8.4-7.77 15.43-13.45 21.83-5.9 6.15-12.66 11.01-20.42 14.55-8 3.28-16.43 5.06-25.5 5.06-9.04 0-17.47-1.78-25.44-5.06-7.8-3.54-14.56-8.4-20.45-14.55-5.69-6.4-10.31-13.43-13.49-21.83-3.34-8.13-5.05-16.73-5.05-25.73v-588.55zm772.92 294.26c0 31.06 5.66 60.34 17.04 87.89 11.18 27.54 26.54 51.54 45.92 72.02 19.34 20.28 42.1 36.58 68.44 48.7 26.51 12.11 54.72 18.04 85.25 18.04 30.08 0 58.33-5.93 84.64-18.04 26.3-12.12 49.26-28.42 68.64-49.14 19.58-20.71 35.14-44.71 46.32-72.02 11.35-27.31 17.04-56.39 17.04-87.45 0-31.06-5.69-60.11-17.04-87.42-11.18-27.35-26.74-51.34-46.32-72.06-19.38-20.69-42.34-36.98-68.64-49.1-26.31-12.12-54.56-18.04-84.64-18.04-30.53 0-58.74 5.92-85.25 18.04-26.34 12.12-49.1 28.41-68.44 48.66-19.38 20.49-34.74 44.52-45.92 72.06-11.38 27.51-17.04 56.8-17.04 87.86zm216.65 361.46c-82.74 0-154.96-26.44-216.65-79.29v321.57c0 19.14-6.32 35.24-18.74 48.02-12.65 12.56-28.01 18.95-45.92 18.95-18.51 0-33.87-6.39-46.08-18.95-12.02-12.78-18.11-28.88-18.11-48.22v-603.74c0-99.77 33.67-184.82 101.24-255.5 67.41-70.49 148.9-105.73 244.26-105.73 94.54 0 176.01 35.24 244.22 105.93 33.9 34.8 59.17 73.59 76 116.3 16.84 42.94 25.27 89.23 25.27 139.2 0 100.67-33.67 185.91-101.27 255.5-34.51 35.91-71.99 62.35-112.63 79.75-40.43 17.41-84.44 26.21-131.59 26.21zm997.36-428.2c-6.96-23.8-17.3-45.35-31.16-64.96-13.69-19.82-29.68-36.55-48.03-50.67-18.3-13.89-38.52-24.9-60.41-32.6-22.12-7.7-44.84-11.65-68.21-11.65-23.39 0-46.35 3.95-68.44 11.65-22.32 7.7-42.54 18.71-61.05 32.6-18.54 14.12-34.54 30.85-48.22 50.67-13.49 19.61-23.6 41.16-30.09 64.96h415.61zm-27.81 224.68c18.54 0 33.9 6.39 46.12 19.14 12.01 12.58 18.11 28.65 18.11 48.03 0 18.94-6.1 35-18.55 48.46-63.55 58.57-138.96 87.89-225.68 87.89-95.38 0-176.88-35.24-244.25-105.96-67.37-70.49-101.28-155.7-101.28-255.5 0-99.77 33.91-185.02 101.28-255.5 67.37-70.69 148.87-105.93 244.25-105.93 94.52 0 176.02 35.44 244.23 106.16 33.66 34.81 58.93 73.8 76 116.74 16.84 42.74 25.27 89.19 25.27 139.43 0 19.38-6.32 35.44-18.94 47.99-12.45 12.79-27.81 19.18-45.92 19.18h-488.44c6.93 23.56 17.23 45.15 30.72 64.53 13.69 19.38 29.49 36.15 47.8 50 18.3 14.09 38.52 24.9 60.44 32.6 22.09 7.7 45.05 11.45 68.84 11.45 27.15 0 51.98-4.39 74.74-12.99 22.52-8.6 43.58-21.59 62.72-38.99 12.45-10.78 26.54-16.3 42.54-16.73zm392.89-452.87c54.52-44.28 118.74-66.5 192.64-66.5 43.18 0 84.21 8.8 122.97 26.41 38.75 17.63 72.86 41.63 102.51 72.05 29.49 30.39 52.88 66.07 70.15 107.04 17.24 41.16 25.87 85.01 25.87 131.49v318.06c0 18.94-6.32 35.01-18.74 48.23-12.62 12.98-27.78 19.61-45.25 19.61-18.11 0-33.5-6.63-46.12-19.61-12.42-13.22-18.74-29.29-18.74-48.23v-318.29c0-27.51-5.06-53.52-15.36-77.98-10.31-24.67-24.2-46.02-41.51-64.29-17.43-18.28-37.88-32.84-61.24-43.61-23.36-10.81-48.23-16.07-74.54-16.07-26.74 0-51.57 5.26-74.73 15.83-23.16 10.58-43.58 25.1-61.28 43.61-17.68 18.51-31.6 39.86-41.47 64.53-10.11 24.46-15.16 50.47-15.16 77.98v318.29c0 18.94-6.33 35.01-18.75 48.23-12.61 12.98-27.77 19.61-45.28 19.61-18.07 0-33.47-6.63-46.08-19.61-12.42-13.22-18.75-29.29-18.75-48.23v-587.21c0-18.51 6.33-34.57 18.75-47.79 12.61-13.46 28.01-20.05 46.08-20.05 17.51 0 32.67 6.59 45.28 20.05 12.42 13.22 18.75 28.85 18.75 46.45zm932.94-64.96c-27.18 0-46.12 11.88-56.87 36.11L18471 4361c-3.38 9.03-5.05 18.07-5.05 27.11 0 9 1.67 17.6 5.05 25.77 3.35 8.13 7.77 15.39 13.46 21.55 5.92 6.43 12.62 11.25 20.41 14.56 7.8 3.51 16.2 5.29 25.27 5.29 11.18 0 21.92-3.08 32.23-8.8 10.11-5.73 18.11-14.13 24-24.91l201.72-460.12 201.04 459.46c11.78 22.92 30.52 34.37 55.99 34.37 9.07 0 17.51-1.78 25.47-5.29 7.8-3.31 14.56-8.13 20.25-14.56 5.89-6.16 10.51-13.42 13.89-21.55 3.58-8.17 5.26-16.77 5.26-25.77 0-9.91-1.88-18.95-5.49-27.11l-259.79-592.5c-11.38-24.23-30.32-36.11-56.62-36.11zm814.15 293.15v-159.88h-168.85c-11.17 0-21.28 2.18-30.75 6.79-9.48 4.42-17.47 10.58-24.2 18.08-6.76 7.49-12.02 16.06-15.8 25.53-3.58 9.51-5.45 19.18-5.45 29.09 0 10.78 1.87 21.15 5.85 30.82 3.82 9.71 9.27 18.31 16.24 25.57 6.92 7.5 14.92 13.22 24.19 17.61 9.27 4.18 19.18 6.39 29.92 6.39h168.85zm64.23-294.69c9.04 0 17.47 1.74 25.27 5.05 7.76 3.52 14.49 8.37 20.18 14.56 5.89 6.36 10.54 13.42 13.92 21.79 3.58 8.13 5.26 16.73 5.26 25.77v588.55c0 9-1.68 17.6-5.26 25.73-3.38 8.4-8.03 15.43-13.92 21.83-5.69 6.15-12.42 11.01-20.18 14.55-7.8 3.28-16.23 5.06-25.27 5.06-8.64 0-17.07-1.78-24.87-5.06-7.76-3.54-14.52-8.4-20.65-14.55-5.85-6.16-10.51-13.43-13.89-21.59-3.14-8.13-4.82-16.74-4.82-25.77v-226.42h-122.53c-29.28 0-52.01 14.76-68.44 44.48l-107.17 208.38c-13.45 27.07-33.06 40.53-58.53 40.53-9.04 0-17.47-1.78-25.24-5.06-7.8-3.54-14.56-8.4-20.45-14.55-5.69-6.4-10.31-13.43-13.45-21.83-3.38-8.13-5.05-16.73-5.05-25.73 0-13.22 3.14-25.14 9.27-35.48l106.73-211.02c3.58-7.7 8-15.19 12.85-22.02-13.49-12.75-25.5-25.77-35.81-38.76-10.11-12.78-18.74-26.21-25.47-39.86-6.73-13.89-12.02-28.42-15.36-44.05-3.59-15.42-5.29-32.16-5.29-50.23 0-29.72 5.49-57.47 16.43-83.71 10.74-25.97 25.47-48.66 44.01-68.04 18.51-19.38 40.2-34.57 65.07-45.82 24.83-11.24 51.14-16.73 79.15-16.73h233.51zm735.61 722.89c-18.51 0-33.87-6.39-45.69-19.38-11.98-12.79-18.1-28.65-18.51-47.16-28.21 23.36-58.33 40.1-89.93 50.67-31.56 10.58-65.9 15.87-102.71 15.87-44.01 0-85.48-9.04-124.44-26.88-38.96-17.84-73.06-41.83-102.31-72.46-29.09-30.62-52.25-66.3-69.28-107.06-17.07-40.97-25.47-84.34-25.47-130.4v-318.69c0-18.5 6.32-34.37 18.71-47.59 12.65-12.98 28.01-19.61 46.12-19.61 17.5 0 32.63 6.63 45.28 19.61 12.42 13.22 18.74 29.09 18.74 47.59v318.69c0 27.98 5.06 54.19 15.16 78.65 9.88 24.67 23.77 46.02 41.04 64.3 17.5 18.3 37.92 32.6 61.28 43.17 23.36 10.58 48.43 15.87 75.17 15.87 26.3 0 51.14-5.29 74.53-15.87 23.36-10.57 43.78-25.1 61.48-43.61 17.68-18.47 31.57-39.86 41.47-64.09 10.11-24.23 15.16-50.44 15.16-78.42v-318.69c0-18.5 6.3-34.37 18.75-47.59 12.61-12.98 28.01-19.61 46.08-19.61 17.47 0 32.63 6.63 45.29 19.61 12.41 13.22 18.74 29.09 18.74 47.59v588.32c0 18.5-6.33 34.34-18.74 47.56-12.66 12.98-28.02 19.61-45.92 19.61zm-256.84-799.53c-28.45 0-54.96-4.22-80.03-12.56-24.83-8.4-46.52-20.04-65.06-34.8-18.51-14.76-33.03-32.4-43.98-52.45-10.97-20.25-16.43-42.03-16.43-65.16 0-18.98 6.09-34.81 18.31-48.03 12.01-13.02 27.38-19.61 45.92-19.61 18.51 0 33.87 6.39 46.32 19.38 9.03 9.7 14.52 21.35 16.63 34.57 1.24 12.12 9.04 22.26 23.36 30.42 15.16 9.01 33.47 13.42 54.96 13.42 21.25 0 39.56-4.41 54.95-13.42 14.29-8.16 21.89-18.3 22.73-30.42 2.51-13.22 8.23-24.87 17.27-34.57 12.42-12.99 27.78-19.38 46.32-19.38 18.51 0 33.67 6.59 45.88 19.61 12.22 13.22 18.11 29.05 18.11 48.03 0 23.13-5.45 44.91-16.2 65.16-10.94 20.05-25.67 37.69-44.21 52.45-18.54 14.76-40.23 26.4-65.06 34.8-24.84 8.34-51.38 12.56-79.79 12.56zm913.96 609.46c11.58 14.73 21.05 24.43 28.41 29.28 24.2 17.41 53.92 25.98 88.86 25.98s64.23-9.01 87.59-27.08c23.36-18.27 35.14-37.69 35.14-58.37 0-25.34-11.78-48.03-35.57-68.07-23.57-20.02-52.62-30.16-87.16-30.16-17.67 0-32.83-6.63-45.48-19.61-12.42-13.22-18.74-29.09-18.74-47.59 0-18.71 6.32-34.78 18.74-48 12.65-12.98 27.81-19.61 45.48-19.61 35.78 0 65.07-6.39 88.23-18.94 22.92-12.56 34.5-26.65 34.5-42.07 0-19.62-11.58-36.55-34.94-50.88-23.16-14.32-52.41-21.58-87.79-21.58-34.94 0-64.66 8.36-88.86 25.1-9.87 7.49-18.5 16.73-25.9 27.74-2.95 3.99-6.09 7.93-9.87 11.68-12.65 13.42-28.02 20.05-45.69 20.05-17.7 0-32.63-6.63-45.28-19.61-12.62-13.22-18.74-29.05-18.74-47.56 0-13.22 3.14-25.34 9.9-36.15 11.78-19.81 27.78-38.32 48-55.49 49.06-40.29 107.8-60.58 176.44-60.58 68.65 0 127.79 19.62 177.29 58.61 49.46 38.99 74.33 88.52 74.33 148.67 0 61.44-21.89 105.05-65.93 131.26 44.04 40.53 65.93 94.72 65.93 162.79 0 59.91-24.67 111.45-73.93 155.06-49.47 43.38-108.64 65.2-177.69 65.2-68.64 0-127.38-20.48-176.44-61.45-18.11-15.23-32.84-31.29-44.42-48.46-8.2-11.68-12.21-25.14-12.21-40.3 0-18.51 6.12-34.37 18.74-47.83 12.62-13.42 27.58-20.04 45.28-20.04 22.29 0 39.56 9.27 51.78 28.01zm812.68-398.01c-30.52 0-58.73 5.92-85.24 18.04-26.34 12.12-49.06 28.41-68.44 48.66-19.38 20.49-34.74 44.52-45.92 72.06-11.35 27.51-17.04 56.8-17.04 87.86 0 31.06 5.69 60.34 17.04 87.89 11.18 27.54 26.54 51.54 45.92 72.02 19.38 20.28 42.1 36.58 68.44 48.7 26.51 12.11 54.72 18.04 85.24 18.04 30.13 0 58.34-5.93 84.68-18.04 26.27-12.12 49.23-28.42 68.61-49.14 19.58-20.71 35.18-44.71 46.32-72.02 11.38-27.31 17.07-56.39 17.07-87.45 0-31.06-5.69-60.11-17.07-87.42-11.14-27.35-26.74-51.34-46.32-72.06-19.38-20.69-42.34-36.98-68.61-49.1-26.34-12.12-54.55-18.04-84.68-18.04zm216.68 508.79c-61.68 52.85-133.91 79.29-216.68 79.29-95.35 0-176.84-35.24-244.22-105.96-67.57-70.49-101.27-155.7-101.27-255.5 0-99.77 33.7-185.02 101.27-255.5 67.38-70.69 148.87-105.93 244.22-105.93 94.55 0 176.05 35.24 244.26 105.73 67.57 70.68 101.24 155.73 101.24 255.5v358.58c0 31.06-4.38 60.34-13.45 87.85-9.04 27.55-21.69 52.68-37.69 75.81-16 22.89-34.94 43.81-56.63 62.32-21.92 18.27-45.48 33.9-70.75 46.69-25.27 12.55-51.58 22.46-79.15 29.32-27.58 6.79-55.19 10.34-82.74 10.34-32.86 0-65.06-4.42-96.86-13.22-31.59-8.8-61.68-21.82-90.13-38.99-28.21-17.17-54.32-38.32-77.88-63.66-23.79-25.34-43.81-53.75-60.21-85.01-6.53-9.94-9.91-22.02-9.91-36.15 0-19.34 6.3-35.24 18.51-47.99 12.45-12.55 27.82-18.94 46.32-18.94 12.42 0 22.56 3.07 30.53 9.03 8.03 5.93 18.97 19.15 33.06 39.86 13.89 20.49 26.31 36.12 36.85 46.93 46.96 48.89 103.59 73.33 169.72 73.33 66.74 0 122.93-24 169.05-72.23 28.42-35.91 42.54-70.92 42.54-104.86v-76.64zm918.38-282.17c0 100.67-33.67 185.91-101.28 255.5-68.21 70.72-149.67 105.96-244.22 105.96-95.38 0-176.84-35.24-244.22-105.96-67.6-70.49-101.31-155.7-101.31-255.5 0-99.77 33.71-185.02 101.31-255.5 67.38-70.69 148.84-105.93 244.22-105.93 94.55 0 176.01 35.24 244.22 105.93 33.91 35.24 58.98 74.23 75.61 116.74 16.83 42.5 25.27 88.79 25.67 138.76zm-345.5-226.62c-30.52 0-58.73 5.92-85.27 18.04-26.31 12.12-49.07 28.41-68.41 48.66-19.38 20.49-34.78 44.52-45.92 72.06-11.38 27.51-17.04 56.8-17.04 87.86 0 31.06 5.66 60.34 17.04 87.89 11.14 27.54 26.54 51.54 45.92 72.02 19.34 20.28 42.1 36.58 68.41 48.7 26.54 12.11 54.75 18.04 85.27 18.04 30.13 0 58.34-5.93 84.65-18.04 26.3-12.12 49.26-28.42 68.64-49.14 19.58-20.71 35.14-44.71 46.32-72.02 11.35-27.31 17.04-56.39 17.04-87.45 0-31.06-5.69-60.11-17.04-87.42-11.18-27.35-26.74-51.34-46.32-72.06-19.38-20.69-42.34-36.98-68.64-49.1-26.31-12.12-54.52-18.04-84.65-18.04zm572.89 226.62c0 31.06 5.69 60.34 17.07 87.89 11.14 27.54 26.54 51.54 45.88 72.02 19.38 20.28 42.1 36.58 68.44 48.7 26.54 12.11 54.76 18.04 85.25 18.04 30.12 0 58.37-5.93 84.64-18.04 26.34-12.12 49.27-28.42 68.64-49.14 19.58-20.71 35.18-44.71 46.33-72.02 11.37-27.31 17.06-56.39 17.06-87.45 0-31.06-5.69-60.11-17.06-87.42-11.15-27.35-26.75-51.34-46.33-72.06-19.37-20.69-42.3-36.98-68.64-49.1-26.27-12.12-54.52-18.04-84.64-18.04-30.49 0-58.71 5.92-85.25 18.04-26.34 12.12-49.06 28.41-68.44 48.66-19.34 20.49-34.74 44.52-45.88 72.06-11.38 27.51-17.07 56.8-17.07 87.86zm216.64 361.46c-82.74 0-154.96-26.44-216.64-79.29v321.57c0 19.14-6.3 35.24-18.75 48.02-12.61 12.56-27.98 18.95-45.88 18.95-18.51 0-33.91-6.39-46.12-18.95-11.98-12.78-18.11-28.88-18.11-48.22v-603.74c0-99.77 33.7-184.82 101.28-255.5 67.37-70.49 148.87-105.73 244.22-105.73 94.55 0 176.04 35.24 244.25 105.93 33.91 34.8 59.14 73.59 76.01 116.3 16.83 42.94 25.27 89.23 25.27 139.2 0 100.67-33.7 185.91-101.28 255.5-34.54 35.91-72.02 62.35-112.65 79.75-40.43 17.41-84.41 26.21-131.6 26.21zm1135.05-361.46c0 100.67-33.67 185.91-101.27 255.5-68.21 70.72-149.67 105.96-244.22 105.96-95.36 0-176.85-35.24-244.22-105.96-67.61-70.49-101.28-155.7-101.28-255.5 0-99.77 33.67-185.02 101.28-255.5 67.37-70.69 148.86-105.93 244.22-105.93 94.55 0 176.01 35.24 244.22 105.93 33.9 35.24 58.97 74.23 75.6 116.74 16.84 42.5 25.27 88.79 25.67 138.76zm-345.49-226.62c-30.53 0-58.74 5.92-85.25 18.04-26.34 12.12-49.06 28.41-68.44 48.66-19.38 20.49-34.74 44.52-45.89 72.06-11.38 27.51-17.07 56.8-17.07 87.86 0 31.06 5.69 60.34 17.07 87.89 11.15 27.54 26.51 51.54 45.89 72.02 19.38 20.28 42.1 36.58 68.44 48.7 26.51 12.11 54.72 18.04 85.25 18.04 30.12 0 58.33-5.93 84.64-18.04 26.31-12.12 49.26-28.42 68.64-49.14 19.58-20.71 35.15-44.71 46.32-72.02 11.38-27.31 17.07-56.39 17.07-87.45 0-31.06-5.69-60.11-17.07-87.42-11.17-27.35-26.74-51.34-46.32-72.06-19.38-20.69-42.33-36.98-68.64-49.1-26.31-12.12-54.52-18.04-84.64-18.04zm740.69 159.88c9.91 0 19.58-1.97 28.85-6.16 9.27-4.18 17.27-9.7 24.23-16.73 7.13-7.27 12.62-15.63 16.84-25.34 4.01-9.7 6.12-20.48 6.12-32.16 0-10.58-2.11-20.92-6.12-30.63-4.22-9.67-9.71-18.03-16.4-25.3-6.76-7.06-14.76-12.78-24.03-17.2-9.27-4.18-19.15-6.36-29.49-6.36h-170.32v159.88h170.32zm46.96 293.39c10.11 0 20.01-1.98 29.28-6.16 9.27-3.95 17.24-9.71 24-16.97 6.73-7.26 12.22-15.63 16.43-25.1 3.99-9.24 6.09-19.61 6.09-30.83 0-11.01-2.1-21.58-6.09-31.29-4.21-9.91-9.7-18.27-16.66-25.54-7.13-7.06-15.13-12.55-24.4-16.53a69.306 69.306 0 00-28.65-6.16h-217.28v158.58h217.28zm-47.16-588.08c28.01 0 54.55 5.72 79.39 17.17 24.83 11.24 46.52 26.64 65.06 46.05 18.51 19.38 33.24 42.04 44.21 68.04 10.95 26.21 16.4 53.75 16.4 83.04 0 46.02-11.78 86.58-35.14 121.36 13.46 12.78 25.47 25.77 35.78 38.79 10.31 12.75 18.74 26.2 25.5 39.86 6.73 13.85 11.98 28.41 15.36 43.61 3.55 15.19 5.26 32.16 5.26 50.67 0 29.28-5.26 56.83-16 83.03-10.74 25.98-25.47 48.67-43.81 68.05-18.51 19.37-40.43 34.8-65.26 46.05-24.84 11.44-51.58 17.17-79.99 17.17h-281.51c-9.07 0-17.47-1.78-25.27-5.06-7.8-3.54-14.72-8.4-20.41-14.55-5.69-6.4-10.31-13.43-13.69-21.83a70.153 70.153 0 01-4.85-25.73v-588.55c0-9.04 1.67-17.64 4.85-25.77 3.38-8.37 8-15.43 13.69-21.79 5.69-6.19 12.61-11.04 20.41-14.56 7.8-3.31 16.2-5.05 25.27-5.05h234.75zm665.12 588.08c10.75 0 20.85-2.21 30.33-6.4 9.47-4.38 17.43-10.1 24.39-17.4 6.76-7.26 12.22-15.63 16-25.3 4.02-9.71 5.93-19.61 5.93-29.96 0-10.57-2.11-20.71-6.13-30.42-4.22-9.67-9.67-18.04-16.83-25.3-6.97-7.3-15.17-13.02-24.44-17.41-9.27-4.18-18.94-6.39-29.25-6.39h-193.71v158.58h193.71zm-193.71-293.39h193.71c28.02 0 54.52 5.72 79.59 17.2 24.83 11.21 46.72 26.64 65.26 46.02 18.51 19.38 33.27 42.07 44.22 68.08 10.94 25.97 16.4 53.51 16.4 82.8 0 29.72-5.46 57.5-16.4 83.47-10.95 26-25.71 48.7-44.22 68.07-18.54 19.38-40.22 34.58-65.26 45.82-24.87 11.25-51.37 16.74-79.39 16.74h-257.91c-9.07 0-17.5-1.78-25.26-5.06-7.8-3.54-14.76-8.4-20.65-14.55-6.1-6.4-10.71-13.43-14.1-21.83-3.17-8.13-4.85-16.73-4.85-25.73v-589.22c.44-9.04 2.31-17.6 5.49-25.54 3.38-7.93 7.77-14.99 13.69-20.91 5.66-6.2 12.42-11.01 19.98-14.56 7.56-3.75 16.2-5.49 25.7-5.49 8.64 0 16.84 1.74 24.64 5.05 7.8 3.52 14.49 8.37 20.61 14.56 5.93 6.36 10.55 13.66 13.89 21.79a70.214 70.214 0 014.86 25.77v227.52zm1043.88 0c-6.96-23.8-17.27-45.35-31.16-64.96-13.69-19.82-29.68-36.55-48.02-50.67-18.31-13.89-38.53-24.9-60.41-32.6-22.13-7.7-44.85-11.65-68.21-11.65-23.37 0-46.32 3.95-68.45 11.65-22.29 7.7-42.54 18.71-61.04 32.6-18.55 14.12-34.54 30.85-48.23 50.67-13.46 19.61-23.56 41.16-30.09 64.96h415.61zm-27.81 224.68c18.54 0 33.9 6.39 46.12 19.14 12.02 12.58 18.11 28.65 18.11 48.03 0 18.94-6.09 35-18.51 48.46-63.59 58.57-138.96 87.89-225.71 87.89-95.39 0-176.89-35.24-244.26-105.96-67.37-70.49-101.24-155.7-101.24-255.5 0-99.77 33.87-185.02 101.24-255.5 67.37-70.69 148.87-105.93 244.26-105.93 94.51 0 176.01 35.44 244.22 106.16 33.67 34.81 58.93 73.8 76 116.74 16.84 42.74 25.27 89.19 25.27 139.43 0 19.38-6.32 35.44-18.94 47.99-12.45 12.79-27.81 19.18-45.92 19.18h-488.44c6.93 23.56 17.27 45.15 30.72 64.53 13.69 19.38 29.49 36.15 47.8 50 18.3 14.09 38.55 24.9 60.44 32.6 22.09 7.7 45.05 11.45 68.85 11.45 27.14 0 52.01-4.39 74.73-12.99 22.53-8.6 43.58-21.59 62.76-38.99 12.41-10.78 26.5-16.3 42.5-16.73zM2655.67 767.57c-1.91-1.81-5.76-5.82-20.79-13.12l5.06-69.61 122.19 6.29c13.29-23.43 10.48-16.07 18.28-39.53 31.79-95.28 16.03-1.74 25.03-132.37 10.24-1.6 9.74-1.2 23.86-3.75l23.33-2.74c1.11-53.15-19.84-96.49-2.61-145.32 14.59-41.44 8.57-102.38 5.82-150.91-9.27-5.93-45.35-84.07-50.57-100.88-41.16-56.32-134.57-104.99-208.2-109.74l-143.89 12.38c-42 19.48-70.82 36.85-96.79 68.48-125 152.58-25.07 323.14-48.23 412.07-10.17 39.02-22.59 85.84-49.5 116.2-27.07 30.62-64.93 41.43-103.25 55.93-40.63 15.32-101.34 9.57-153.05 10.34-53.98.77-91.43 9.4-133.57 27.91-18.95 8.3-25.07 18.37-46.86 32.4-51.27 32.96-118.14 53.65-169.48 74.63-86.49 35.31-136.92 50.54-217.95 116.78-21.05 17.23-75.27 63.12-98.6 65.19-56.83 69.32-170.66 61.05-222.5 209.35l-59.71 261.15c-1.1 35.98-1.24 56.33-6.22 87.79-2.65 62.79-12.79 118.85-12.45 190.24.27 61.08-.07 121.56-1.07 182.6l-20.65 121.86c-25.74 76.41-30.93 108.07-5.86 205.57 25.1 7.49 2.88 21.25 51.41 27.51 63.12 8.13 180.79 12.55 210.98-40.4 2.92-5.09 29.09-136.02 27.38-147.43-2.28-15.46-16.23-44.71-28.68-60.64-20.52-26.21-21.19-14.09-42.98-35.31-25.47-45.99 28.29-248.37 48.7-318.42l17.87-51.01c62.62-151.68 58.24-193.28 86.12-342.08 95.62-10.95 80.79-6.06 189.8-48.73l136.22-59.48c53.88-13.02 7.43-8.87 64.02-41.06 40.8-23.2 44.41-17.37 73.6-1.81 14.63 199.67 57.16 242.65 68.64 317.82l4.96 10.51c.6 1.54 1.57 3.95 2.21 5.72 32.76 88.79 75.4 247.94 75.4 338.3 0 54.02-18.78 136.92-37.45 175.41-27.21 56.13-48.26 90.33-76.41 136.69-62.25 102.64-76.98 260.45-60.51 355.7 20.48 118.38-42.74 136.02-98.47 253.36-19.57 41.2-10.47 31.22-34.94 46.96l-71.42 196.92c-13.49 22.39 1.84 6.6-18.11 18.65 7.13 35.77-67.47 255.03-127.34 304.63l-56.83 35.78c-5.89 2.1-11.38 3.04-18.55 5.28-79.62 25.17-55.12 6.97-110.78 17.31-110.11 20.48-121.96 19.04-231.77 70.25-62.95 29.38-305.4 183.64-368.02 227.02-32.33 22.35-80.79 51.17-118.11 71.89-69.61 38.62-64.36 40.49-155.66 40.09-129.52-.57-320.97-28.71-334.49 65.43-9.03 63.06 7.7 132.84-5.45 193.18l-32.13 108.34C1.04 4228.8 0 4229.56 4.55 4355.74c1.94 54.25 8.57 126.41 55.29 142.04 46.86-16.7 57.8-66.27 78.65-112.15l118.65-173.17c81.5-106.86 79.25-130.19 186.55-202.88 24.64-16.67 38.36-21.19 61.62-34.51 52.95-30.36 399.01-119.42 456.48-136.25 153.49-44.88 287.73-85.05 442.86-146.23 39.55-15.59 101.87-37.11 144.61-51.7 174.27-59.58 107.3-11.95 243.09-145.83 18.5-18.27 186.88-171.96 215.63-175.51 5.73-16.66 137.33-150.74 182.68-218.82 13.22-19.84 12.68-32.36 26.6-53.41 14.46-21.86 19.28-22.59 32.23-46.92 11.89-22.19 14.93-35.28 28.42-48.5 10.11-32.46 26.07-58.34 40.03-84.64 16.66-36.11 37.88-69.15 54.18-98.07 41.54.44 56.8 13.43 88.33 26.34 54.68 22.46 262.83 51.45 269.32 54.52 33.37 15.7 5.92-.93 21.59 16.81 51.84-7.03 81.86 1.3 118.47 9.87 79.12 18.44 93.55-4.15 177.46 21.55 25.23 7.73 35.2 6.19 65.36 6.73 28.41.57 99.87 13.62 117.64 23.13-8.8 23.89-27.48 58.63-38.49 80.36-15.02 29.55-48.89 97.42-51.24 133.37-1.84 28.31-.73 33.77-6.99 60.14-31.6 133.47 11.75 500.29-5.76 574.22l-10.47 24.5c8.03 36.52 3.98 47.73-4.39 78.95-8.03 29.79-7.03 52.68-14.36 83.47-6.12 25.51-32.09 110.42-54.55 126.38-2.41 31.19-32.83 76.51-45.32 110.98-15.36 42.54-16.3 101.92 8.97 132.61 33 40.03 174.64 76.71 235.05 97.56 37.65 13.02 78.69 28.45 115.87 42.97l126.91 41.23c67.84 12.92 99.44-7.12 150.78-13.92 100.17-13.32 167.58-58.33 16.43-132.03l-79.28-46.26c-1.08-.83-2.98-2.41-3.95-3.21-8.54-7.33-6.93-7.43-9.07-10.47-64.2-28.79-161.96-122.77-186.29-182.98-21.15-52.34-26.77-92.34-26.67-159.21.06-36.28 17.8-143.98 22.62-155.66l221.63-842.34c10.21-45.52 50.24-144.62 36.58-238.7-9.24-63.45-52.68-96.22-98.1-124.73l-104.92-61.25c-19.51-11.45-14.26 5.86-27.41-18.91-39.09-7.97-89.29-44.41-115.47-60.41l-59.84-28.92c-157.84-85.01-92.91-58.54-281.6-131.63-22.56-8.77-10.65-6.33-31.36-14.36l-78.86-31.96c-1.6-.77-3.68-1.81-5.22-2.55-64.46-21.11 5.22 2.55-64.46-21.11-64.36-20.05-141.27-31.13-200.84-53.62-1.88-49.47 6.79-21.52 17.3-56.43 3.61-12.08 1.57-8.57 3.21-20.62 4.59-33.4 2.85-22.29 10.11-46.05l27.41-124.27c4.52-20.65 11.58-55.05 17.37-77.65 6.33-24.59 8.4-14.49 13.49-39.29l37.32-220.22c3.38-36.75-4.82-55.73 25.33-71.86-8.67-50.47 3.88-70.01 17-105.02 41.57 7.93 58.24 42.57 133.41 86.21l135.08 78.12c154.56 77.38 152.72 81.39 274.88-33.91l55.25-56.52c1.41-1.88 5.16-7.53 6.53-9.41l89.96-130.19c1.34-1.94 5.43-7.26 6.7-9.24l95.45-247.27c49-133.23 172.5-199.03 130.33-288.63-26.01-55.32-94.12-116.27-171.23-106.3-13.35 15.17-24.03 30.76-43.11 43.01-30.99 19.88-29.58 2.38-43.74 41.2-41.37 113.56 58.3 139.4-40.96 285.26-16.17 23.76-27.15 39.56-35.05 49.9-6.46 8.4-26.37 24.83-44.41 45.88-5.69 6.63-24.33 21.05-71.56 62.66-13.85 12.18-30.65 27.77-47.99 47.05-59.91 66.5-38.52 66.17-116.17-22.69-91.47-104.69-154.82-92-164.1-213.53-3.94-52.08-47.35-120.55-85.61-155.93-24.13-22.36-49.1-39.06-70.95-55.72-15.46-11.82-26.01-20.25-33.07-26.58-.9-.8-31.89-34.3-32.73-35.04zm72.86 1270.74c-32.4-36.28-35.11-17.78-111.18-18.08 11.01 38.43-1.11 67.14 17.6 97.2 14.76 23.69 12.92 18.07 33.6 24.09 19.75 5.76 3.72-4.92 23.06 6.63l36.92-109.84z" fill="#fff"/></svg>