<svg xmlns="http://www.w3.org/2000/svg" width="487" height="531" viewBox="0 0 181.48 197.68" shape-rendering="geometricPrecision" text-rendering="geometricPrecision" image-rendering="optimizeQuality" fill-rule="evenodd" clip-rule="evenodd"><defs><style>.fil0{fill:#fefefe;fill-rule:nonzero}</style></defs><g id="Слой_x0020_1"><path class="fil0" d="M3.46 45.49A3.613 3.613 0 010 41.75a3.606 3.606 0 013.74-3.46l26.37 1.07a3.6 3.6 0 013.46 3.74 3.594 3.594 0 01-3.74 3.46L3.46 45.49zm171.76 80.52c1.81-.81 3.94 0 4.76 1.82.81 1.82-.01 3.95-1.83 4.76l-67.46 30.25c-1.82.81-3.95 0-4.76-1.82-.81-1.82 0-3.95 1.82-4.76l67.47-30.25zm-92.66 33.6l.09-.04h.03c2.74-1.23 5.71-1.26 8.34-.28 2.62.98 4.88 2.96 6.17 5.75l.09.19c1.19 2.79 1.18 5.83.14 8.49a11.177 11.177 0 01-5.87 6.12l-.06.03a11.267 11.267 0 01-8.42.18c-2.63-1-4.89-2.97-6.17-5.74l-.06-.14c-1.18-2.84-1.16-5.9-.12-8.54 1.02-2.61 3.02-4.81 5.84-6.01v-.01zm3.08 6.53v.01l-.09.04-.13.04c-.95.4-1.64 1.14-1.98 2.03-.37.92-.38 2.01.01 3.04a3.91 3.91 0 002.16 2c.96.36 2.05.36 3.06-.07.98-.45 1.67-1.23 2.03-2.14.36-.92.37-1.98-.03-2.96l-.04-.1c-.46-.97-1.24-1.66-2.13-1.99-.89-.34-1.91-.32-2.86.1z"/><path class="fil0" d="M75.62 144.08a27.944 27.944 0 0121.39-.61c6.67 2.55 12.39 7.66 15.62 14.72l.01.03c3.15 7.07 3.16 14.75.61 21.44-2.56 6.7-7.67 12.42-14.74 15.58a27.896 27.896 0 01-21.39.6c-6.67-2.55-12.39-7.65-15.62-14.71l-.01-.02c-3.16-7.01-3.16-14.66-.6-21.37 2.55-6.68 7.65-12.42 14.71-15.65l.02-.01zm18.82 6.14a20.76 20.76 0 00-15.88.44c-5.23 2.4-9.02 6.68-10.92 11.65-1.9 4.98-1.91 10.66.43 15.84h-.01c2.4 5.25 6.66 9.05 11.63 10.94 4.97 1.9 10.64 1.9 15.88-.43 5.24-2.34 9.03-6.59 10.93-11.57 1.9-4.98 1.9-10.69-.44-15.93-2.4-5.25-6.65-9.04-11.62-10.94zM54.33 43.55c8.55-3.85 31.37-12.75 37.8-17.03 1.97-.92 4.1-.9 5.96-.21 1.81.69 3.37 2.05 4.26 3.83l.03.04c5.75 11.94 11.09 24.6 16.55 36.73l.02.04c.86 1.96.86 4.11.15 5.98a7.746 7.746 0 01-4.16 4.39L77.09 94.3c-1.95.93-3.99.95-5.8.3-1.87-.66-3.49-2.06-4.47-3.9l-.11-.22-16.33-36.67-.05-.13a7.575 7.575 0 01-.12-5.78 7.774 7.774 0 013.98-4.28l.04-.03.1-.04zm40.71-10.42L57.2 50.17a.56.56 0 00-.24.3c-.04.11-.06.21-.04.29l.04.09v.01L73.23 87.4c.12.19.29.33.48.4.11.03.22.04.3 0l.14-.07 37.91-17.02a.53.53 0 00.29-.33c.06-.15.07-.33.01-.49-4.51-8.27-13.22-27.69-16.47-36.57a.706.706 0 00-.34-.26.476.476 0 00-.37.01v-.01l-.14.07z"/><path class="fil0" d="M9.01 5.07c-.81-1.81.01-3.95 1.83-4.76 1.81-.81 3.94.01 4.75 1.83l64.39 143.23c.81 1.81 0 3.94-1.82 4.75-1.82.82-3.95 0-4.76-1.82L9.01 5.07zm88.06 138.62c1.79-.61 3.77.26 4.5 2.03.77 1.84-.1 3.95-1.94 4.71-1.68.7-3.49.69-5.1.09a6.928 6.928 0 01-3.79-3.41 3.598 3.598 0 011.61-4.83c1.71-.86 3.78-.22 4.72 1.41zm-8.13-18.3c.82 1.81.03 3.95-1.78 4.77-1.81.83-3.95.03-4.78-1.77l-8.89-19.53a6.894 6.894 0 01-.08-5.09 6.891 6.891 0 013.41-3.79l.14-.07 78-34.98a6.85 6.85 0 015.13-.07c1.59.61 2.95 1.82 3.69 3.52l17.17 38.12c.7 1.67.69 3.55.08 5.17-.62 1.67-1.87 3.09-3.63 3.83l-64.3 28.87a3.61 3.61 0 01-4.76-1.82c-.81-1.82 0-3.95 1.82-4.76l64.03-28.75-16.81-37.3-77.12 34.59 8.68 19.06z"/></g></svg>