<svg xmlns="http://www.w3.org/2000/svg" width="1718" height="1475" viewBox="0 0 1718.03 1474.82" shape-rendering="geometricPrecision" text-rendering="geometricPrecision" image-rendering="optimizeQuality" fill-rule="evenodd" clip-rule="evenodd"><path d="M319.59 422.4c-16.66 0-30.17-13.51-30.17-30.17 0-16.66 13.51-30.17 30.17-30.17h764.8c16.66 0 30.17 13.51 30.17 30.17 0 16.66-13.51 30.17-30.17 30.17h-764.8zm-1.25 125.64c-16.66 0-30.17-13.51-30.17-30.17 0-16.66 13.51-30.17 30.17-30.17h764.83c16.66 0 30.17 13.51 30.17 30.17 0 16.66-13.51 30.17-30.17 30.17H318.34zm2.47 129.32c-16.66 0-30.17-13.51-30.17-30.17 0-16.66 13.51-30.17 30.17-30.17h764.79c16.67 0 30.17 13.51 30.17 30.17 0 16.66-13.5 30.17-30.17 30.17H320.81zm-60.95 410.1H89.29c-24.88 0-47.03-10.05-63.06-26.08C9.94 1045.09 0 1022.58 0 998.17V89.29c0-24.96 9.81-47.25 25.92-63.37C42.04 9.81 64.33 0 89.29 0h1205.7c24.4 0 46.91 9.94 63.21 26.24 16.02 16.02 26.08 38.17 26.08 63.05v563.44h333.75v642.87h-144.09v179.22l-179.26-179.22H960.6v-208.14H628.79L259.86 1457.8v-370.34zm-170.57-60.34h200.74v30.17h30.17v254.69l283.78-284.86h378.29a30.233 30.233 0 0117.01 0h295.71c7.68 0 14.88-3.36 20.24-8.72 5.35-5.35 8.71-12.55 8.71-20.23V89.29c0-8.07-3.24-15.23-8.4-20.39-5.32-5.32-12.64-8.56-20.55-8.56H89.29c-8.31 0-15.58 3.12-20.71 8.24-5.12 5.13-8.24 12.4-8.24 20.71v908.88c0 7.92 3.24 15.24 8.55 20.55 5.16 5.16 12.33 8.4 20.4 8.4zm1294.99-314.05v285.1c0 24.34-10.19 46.69-26.39 62.89-16.21 16.21-38.57 26.4-62.9 26.4h-274.05v147.8h398.48l94.18 94.16v-94.16h144.09V713.07h-273.41z" fill="#fefefe" fill-rule="nonzero"/></svg>