<svg xmlns="http://www.w3.org/2000/svg" width="545" height="600" viewBox="0 0 91.49 100.79" shape-rendering="geometricPrecision" text-rendering="geometricPrecision" image-rendering="optimizeQuality" fill-rule="evenodd" clip-rule="evenodd"><defs><style>.fil0{fill:#fefefe;fill-rule:nonzero}</style></defs><g id="Слой_x0020_1"><path class="fil0" d="M45.75 9.29c12.63 0 24.07 5.12 32.34 13.4 8.28 8.28 13.4 19.72 13.4 32.35 0 12.63-5.12 24.07-13.4 32.35-8.27 8.27-19.71 13.4-32.34 13.4-12.64 0-24.07-5.13-32.35-13.4C5.12 79.11 0 67.67 0 55.04c0-12.63 5.12-24.07 13.4-32.35 8.28-8.28 19.71-13.4 32.35-13.4zM75 25.78c-7.48-7.48-17.83-12.12-29.25-12.12-11.43 0-21.77 4.64-29.26 12.12C9 33.27 4.37 43.61 4.37 55.04 4.37 66.46 9 76.81 16.49 84.3c7.49 7.48 17.83 12.11 29.26 12.11 11.42 0 21.77-4.63 29.25-12.11 7.49-7.49 12.12-17.84 12.12-29.26 0-11.43-4.63-21.77-12.12-29.26z"/><path class="fil0" d="M43.46 21.32c0-1.21.97-2.19 2.18-2.19 1.21 0 2.19.98 2.19 2.19v43.66c0 1.21-.98 2.18-2.19 2.18s-2.18-.97-2.18-2.18V21.32zM50.01 0v11.48h-8.74V0zm35.56 18.4l-7.44 7.44-1.55-1.55 7.44-7.43z"/><path class="fil0" d="M81.99 11.22l9.22 9.23-4.64 4.61-9.22-9.22z"/><path d="M45.64 52.79a5.01 5.01 0 015.02 5.02c0 2.77-2.24 5.02-5.02 5.02-2.77 0-5.02-2.25-5.02-5.02 0-2.78 2.25-5.02 5.02-5.02z" fill="#fefefe"/><path class="fil0" d="M45.64 52.17c1.56 0 2.97.63 3.99 1.65a5.622 5.622 0 011.65 3.99c0 1.55-.63 2.96-1.65 3.99a5.622 5.622 0 01-3.99 1.65c-1.55 0-2.96-.63-3.98-1.66A5.584 5.584 0 0140 57.81c0-1.56.63-2.97 1.65-3.99a5.658 5.658 0 013.99-1.65zm3.12 2.53c-.8-.8-1.9-1.29-3.12-1.29-1.21 0-2.32.49-3.11 1.29a4.35 4.35 0 00-1.29 3.11c0 1.22.49 2.31 1.29 3.11.79.8 1.89 1.29 3.11 1.29s2.32-.49 3.12-1.29a4.39 4.39 0 000-6.22z"/></g></svg>