<svg xmlns="http://www.w3.org/2000/svg" width="230" height="234" viewBox="0 0 30.55 31.09" shape-rendering="geometricPrecision" text-rendering="geometricPrecision" image-rendering="optimizeQuality" fill-rule="evenodd" clip-rule="evenodd"><defs><style>.fil0{fill:#e22929}</style></defs><g id="Слой_x0020_1"><g id="_852888064"><path class="fil0" d="M6.87 27.79l.04-1.15c-.01-.18.02-.24.03-.37.24 0 .36-.04.59-.04l15.98-.03v3.9H6.87v-2.31zm7.39-7.6v-.78c.62 0 1.48-.06 2.12-.06 0 .15.02.16.03.28.02.28-.01.46.05.91.19 1.41.37 2 1.21 3.28.14.2.1.2.22.25l1.19.31c.33.1.62.22.9.37.19.1.66.41.76.55H12.7c-.92 0-1.74-.03-2.65-.03.06-.21.48-.4.67-.49.65-.33 1-.43 1.7-.6.41-.1.51-.16.72-.47.57-.87 1.12-2.07 1.12-3.52zM.96 4.18c0-.34 0-.51.46-.56.56-.06 2.01-.04 2.62-.04l.41 2.02c.43 1.85.76 2.97 1.35 4.73.07.22.26.75.26.98-.19 0-.43-.08-.61-.13-.42-.12-1.29-.47-1.65-.66C1.72 9.4 1.24 7.08 1.01 4.9c-.02-.24-.05-.45-.05-.72zm23.21 7.22c0-.15.09-.34.14-.48.06-.15.12-.31.16-.46.11-.31.23-.58.34-.91.22-.63.43-1.25.63-1.89.28-.87.56-2.04.79-2.95.04-.18.24-.89.24-1.03.71-.17 1.64-.1 2.37-.1.2 0 .61 0 .7.17.18.33-.07 2.01-.13 2.33-.4 2.09-1.02 3.86-3.21 4.71-.86.34-1.18.41-2.03.61zM4.66 1h16.83c1.54 0 2.98.03 4.52.03 0 .33-.51 2.58-.59 2.9l-.72 2.8c-.25.9-.75 2.39-1.1 3.27-.08.2-.16.41-.25.62-.38.95-.7 1.53-1.12 2.39l-.65 1.11c-.1.17-.22.36-.34.52l-.75 1c-.14.17-.27.32-.43.48-.09.09-.12.14-.2.23l-.69.62c-.91.77-2.2 1.43-3.42 1.41-.46 0-.17.06-.84 0-.14-.01-.28.01-.42-.01a5.69 5.69 0 01-2.02-.6l-1.58-1.04c-1.08-.83-1.99-2.27-2.69-3.44-.12-.19-.19-.38-.3-.57-.15-.24-.7-1.51-.83-1.82-.09-.22-.16-.41-.24-.63-.09-.22-.15-.43-.24-.64-.15-.4-.29-.88-.42-1.32l-.55-2.1c-.21-.81-.96-4.5-.96-5.21zm-.9-.84c-.21.88.12 1.99.12 2.43-.77 0-2.77-.1-3.31.24-.19.12-.37.34-.45.58-.17.54-.13 1.23-.06 1.85.08.86.31 1.77.54 2.57.3 1.01.76 1.93 1.48 2.66l.56.47c1.22.83 2.29 1.08 3.75 1.43.2.05.22.01.31.19.28.58.73 1.43 1.1 1.98.35.51.71 1.04 1.1 1.52.27.34.89 1.03 1.25 1.31.06.04.07.06.13.11.07.06.09.07.15.13.67.58 1.45 1.01 2.28 1.33.6.23.61.22.61 1.1 0 1.03-.34 2.03-.83 2.82-.18.29-.43.36-.79.46-.96.26-2.11.77-2.71 1.58-.09.12-.16.26-.25.38-.68 0-1.45-.05-2.12.03-.73.08-.72-.13-.71 1.47 0 .26-.03.4-.03.68v1.28c0 .4 0 1.6.08 1.94.03.11.19.39.29.39H18.5c1.28 0 2.48-.03 3.74-.03.63 0 1.27 0 1.84-.06.16-.01.26-.01.32-.14.04-.07.08-.28.08-.39l-.03-4.74c-.01-.26-.05-.35-.29-.39a6.45 6.45 0 00-.62-.04c-.4 0-.97.04-1.36-.01-.62-.08-.12-.59-1.91-1.49-.47-.23-.97-.39-1.49-.53-.2-.06-.31-.09-.45-.24-.49-.51-1.02-2.31-.92-3.08.03-.18.02-.46.05-.64.02-.14.02-.15.12-.23.29-.2.78-.37 1.11-.57.42-.25.8-.53 1.17-.85.3-.26.63-.53.88-.84l1.06-1.27c.66-.95 1.26-1.93 1.76-2.97.11-.22.28-.16.5-.2.91-.13 1.83-.32 2.65-.74l.88-.46c1.16-.69 1.9-1.82 2.33-3.09.48-1.4.63-2.6.63-4.1 0-1.47-1.27-1.4-2.43-1.4h-1.4c0-.27.13-.77.19-1.03.03-.18.06-.37.09-.54.04-.24.17-.69-.1-.86-.18-.11-.6-.1-.83-.1-.2 0-.24-.03-.44-.03h-1.9c-.65 0-1.21-.03-1.87-.03H9.4c-.67 0-1.27.03-1.9.03H5.57c-.36 0-.62.03-.94.03-.29 0-.68 0-.87.1z"/><path class="fil0" d="M15.72 6.01h.07c.04.19.55 1.19.68 1.35.16.21.38.21.73.26.29.04.67.05.92.11L17.1 8.76c-.14.14-.15.12-.11.35.06.33.2 1.1.2 1.39-.16-.01-.55-.24-.71-.32-.8-.4-.68-.4-1.47.01-.12.06-.23.11-.36.17-.13.07-.23.11-.36.17 0-.45.25-1.14.25-1.56 0-.05-.49-.54-.58-.63-.09-.09-.13-.11-.22-.19-.7-.58-.28-.44-.08-.46.31-.04.85-.09 1.1-.15.3-.07.45-.4.58-.66l.25-.56c.05-.11.11-.2.13-.31zm-2.27 3.37c0 .77-.72 2.62 0 2.62.3 0 .91-.33 1.17-.48l1.1-.56c.14-.04.41.15.53.22.18.11.36.19.55.3.38.2.83.52 1.26.52.58 0 .19-1.31.12-1.74-.16-.91-.31-.91.03-1.2.08-.07.12-.09.2-.17.36-.36 1.3-1.09 1.3-1.54 0-.46-.53-.46-1.16-.55-.27-.04-.5-.07-.76-.11-.12-.01-.25-.04-.38-.06-.16-.02-.22-.01-.3-.13-.29-.43-.98-2.17-1.32-2.17-.37 0-.47.28-.7.74-.08.16-.14.28-.22.43-.1.22-.3.75-.43.91-.13.15-.22.19-.44.25-.2.05-.35.06-.56.09-.22.03-.4.05-.61.08-.17.02-.42.05-.57.08-.22.04-.36.06-.45.24-.16.35.06.54.35.83l.67.67.16.16c.08.08.09.1.16.18.04.06.3.34.3.39z"/></g></g></svg>