<svg xmlns="http://www.w3.org/2000/svg" width="283" height="241" viewBox="0 0 107.69 91.81" shape-rendering="geometricPrecision" text-rendering="geometricPrecision" image-rendering="optimizeQuality" fill-rule="evenodd" clip-rule="evenodd"><path d="M14.42 55.85h21.19c1.3.02 2.41.26 3-.53.72-.96.59-7.34.86-9.73l1.43-19.76c.35-.35 1.52.4 2.35.59l1.98 13.33c.73 4.45 1.5 8.94 2.09 13.2l3.61 23.17c.33 2.07.4 2.38 2.03 2.38 1.21 0 1.28-1.36 1.44-2.38l4.18-22.9c.86-4.34 1.49-8.74 2.4-13.19.28-1.39 1.65-11.83 2.87-12.72 0 3.75.17 6.61.28 10.3l1.15 20.34c.19 1.71-.11 3.48.12 5.17.36 2.68-.41 4.2 1.98 4.2.71 0 .96-.48 1.36-.99l3.47-4.47c1.57-2.09 3.19-3.94 4.58-6.01h16.77c-1.59 6.85-11.79 14.92-17.47 18.71-3.72 2.48-7.46 4.32-11.19 6.76L54.14 88.8l-10.65-7.3c-9.16-6.18-17.82-9.24-25.76-19.85-1.42-1.9-2.21-3.72-3.31-5.8zm32.36-26.78c4.2 2.81 5.07 6.61 7.06 7.95 1.73-.41 2.01-1.71 2.88-3.01.78-1.16 1.62-2.44 2.71-3.17l-6.76 36.78c-.03-1.3-.44-3.24-.67-4.63-.24-1.38-.51-3.36-.76-4.83l-4.46-29.09zm20.01-3.53c2.7-.22 2.71-1.47 9.71-1.47 6.73 0 12.39 3.29 15.77 7.77 3.61 4.79 3.65 9.03 3.65 14.59 0 1.88-.6 5.26-1.18 6.47-5.79 0-11.59.04-17.37-.01-2.55-.03-2.24.06-4.91 3.63-.69.93-1.18 1.61-1.91 2.49-.62.75-1.34 1.94-1.99 2.43-.44-1.87-.47-10.87-.81-13.32l-.96-22.58zM35.9 52.9H13.24c-.19-2.25-1.18-3.76-1.18-8.82 0-6.1 2.4-11.07 5.51-14.21 4.06-4.08 9.12-5.8 15.97-5.8 4.39 0 4.61.29 4 4.29L35.9 52.9zm5.29-36.19h.59c0 2.03.49 4.48.88 6.18-.71-.16-1.18-.31-1.76-.59.15-1.82.29-3.32.29-5.59zm-3.23 4.71c-1.52 0-4.17-.57-5.53-.49C23.78 21.4 16 24.7 11.86 32.4c-2.75 5.13-2.74 8.44-2.74 14.03 0 2.65.84 4.32.88 6.47H1.47c-.96 0-1.13.84-1.47 1.48.35.65.49.88.88 1.47h10.3c1.25 5.36 8.21 12.93 12.61 16.51 3.12 2.55 5.23 3.85 8.45 5.97l6.1 3.61c1.16.69 1.99 1.23 3.09 1.91 2.07 1.31 3.91 2.4 5.86 3.86 1.01.75 1.85 1.36 2.9 2.09 5.26 3.63 3.99 2.3 13.01-3.71 6.94-4.62 16.13-9.17 22.2-14.58 7.03-6.27 7.61-7.94 11.7-15.66h9.71c.39-.59.53-.82.88-1.47-.35-.66-.49-.89-.88-1.48h-8.83c2.58-11.09 1.09-21.28-8.59-27.89-5.23-3.57-10.7-4.3-16.99-3.87-1.42.1-4.87.96-5.9 1.46 0-2.64-.32-4.48-.31-6.76.02-2.23.46-5.31-1.75-5.31-1.46 0-1.52 1.77-1.75 2.97-.46 2.42-2.08 10.48-2.08 12.33L57 28.7c-.57.66-.85 1.09-1.46 1.78-.46.52-1.05 1.3-1.4 1.83-.78-.57-1.55-2-2.42-2.88-1.65-1.65-2.44-2.55-4.41-3.83-.98-.62-1.08-.4-1.41-1.53-.62-2.16-2.85-19.63-3.83-23.83-3.43-.8-2.67.39-2.95 4.1l-1.16 17.08z" fill="#de0000"/></svg>