<svg xmlns="http://www.w3.org/2000/svg" width="209" height="155" viewBox="0 0 86.64 64.08" shape-rendering="geometricPrecision" text-rendering="geometricPrecision" image-rendering="optimizeQuality" fill-rule="evenodd" clip-rule="evenodd"><path d="M49.88 62.4C44.83 60.59 1.62 25.52.32 22.16c-1.16-3.11.52-5.56 10.1-14.62C20.9-2.55 23.87-2.55 26.07 7.8c.39 2.07 2.72 5.69 5.18 8.15l4.4 4.4 3.88-2.72c4.92-3.75 6.21-2.85 14.1 9.06 8.41 12.94 11.13 15.01 20.96 17.34 9.06 2.2 11.65 4.4 11.65 10.09 0 1.94.13 4.01.39 4.53.52 1.81-15.14 5.3-23.68 5.43-4.66 0-10.48-.77-13.07-1.68zm26.4-2.2c4.91-1.04 7.37-2.2 7.37-3.36 0-1.17-.78-1.69-1.94-1.17-4.92 1.81-18.89 2.33-25.23.78-7.38-1.81-22-12.04-42.31-29.5-7.64-6.6-10.74-8.67-11.26-7.25C2 21.9 41.47 55.54 49.36 59.16c5.95 2.72 16.18 3.11 26.91 1.04h.01zm5.95-7.63c1.16-.52-1.69-.78-6.6-.39-9.84.77-20.19-1.17-27.56-5.44-10.48-5.95-25.36-23.42-30.41-35.45-.9-2.2-2.07-4.01-2.72-4.01-1.55 0-1.55.26 1.43 6.6 1.42 3.1 2.59 7.5 2.59 9.83 0 3.62 1.42 5.31 13.32 14.62 13.98 11.13 18.63 14.11 24.85 15.66 4.52 1.16 22.25.26 25.1-1.42zm-1.94-3.76c.38-.64-1.56-1.42-4.4-1.94-8.93-1.42-25.62-7.37-28.86-10.22-1.68-1.55-4.91-5.43-6.98-8.67-2.2-3.23-5.44-6.6-7.12-7.5-3.62-1.94-10.09-11.39-10.09-14.62 0-2.85-2.46-4.4-4.14-2.72-1.82 1.81 4.14 13.46 12.42 24.32 7.5 9.97 19.79 19.15 28.2 20.97 7.25 1.68 20.06 1.94 20.97.38zM56.48 36.39c-1.55-1.68-3.37-2.97-3.88-2.59-.39.26-1.82-.64-3.11-2.2-1.94-2.2-2.07-2.84-.65-3.75 1.43-.9 1.3-1.16-.38-1.16-2.72 0-3.11-2.07-.65-2.98.78-.39-.39-.77-2.59-.77-2.59-.13-4.27.51-4.27 1.55.13 2.2 6.34 8.8 11.65 12.16 5.95 3.88 7.63 3.75 3.88-.26zM14.69 17.76c-1.82-6.6-4.02-8.02-6.09-4.01-1.29 2.46-1.03 3.49 2.72 7.24 5.05 5.18 5.69 4.53 3.37-3.23zm30.01 2.59c1.04-.65 1.17-1.43.39-1.94-1.81-1.04-5.56.51-4.66 1.94.91 1.42 1.94 1.42 4.27 0z" fill="#e12323"/></svg>